<?xml version="1.0" standalone="no"?>
<!DOCTYPE svg PUBLIC "-//W3C//DTD SVG 20010904//EN"
 "http://www.w3.org/TR/2001/REC-SVG-20010904/DTD/svg10.dtd">
<svg version="1.0" xmlns="http://www.w3.org/2000/svg"
 width="776.000000pt" height="776.000000pt" viewBox="0 0 776.000000 776.000000"
 preserveAspectRatio="xMidYMid meet">
<metadata>
Created by potrace 1.16, written by Peter Selinger 2001-2019
</metadata>
<g transform="translate(0.000000,776.000000) scale(0.100000,-0.100000)"
fill="#000000" stroke="none">
<path d="M3670 7746 c0 -8 -14 -19 -31 -25 -28 -10 -157 -78 -214 -114 -264
-164 -538 -455 -679 -722 -21 -38 -42 -77 -47 -85 -76 -128 -158 -396 -179
-585 -6 -49 -15 -118 -20 -151 -6 -34 -10 -86 -10 -115 0 -96 39 -392 64 -489
62 -236 82 -288 179 -460 140 -249 263 -402 456 -570 73 -64 205 -163 241
-182 14 -7 40 -23 58 -35 44 -29 225 -118 282 -138 163 -59 334 -100 485 -116
118 -12 428 -6 500 11 22 5 72 16 110 24 212 44 453 147 636 272 167 113 229
164 357 294 82 83 226 264 252 318 8 15 19 34 26 42 48 61 161 322 202 465 57
202 77 343 76 555 -1 252 -36 442 -129 699 -23 62 -139 296 -178 356 -131 205
-386 465 -579 591 -80 53 -235 134 -254 134 -8 0 -19 9 -26 20 -13 20 -24 20
-795 20 -665 0 -783 -2 -783 -14z m947 -115 c26 -5 84 -15 128 -22 77 -11 226
-51 310 -83 51 -19 184 -89 252 -132 30 -19 56 -34 59 -34 16 0 186 -136 265
-211 126 -122 324 -411 383 -561 91 -231 122 -390 128 -653 3 -108 -13 -270
-33 -350 -6 -22 -16 -68 -24 -102 -8 -35 -19 -71 -24 -80 -5 -10 -22 -52 -37
-93 -129 -344 -421 -678 -759 -871 -186 -105 -396 -172 -620 -198 -104 -13
-337 -13 -410 -1 -135 21 -299 63 -370 95 -296 129 -455 244 -669 481 -126
139 -219 285 -294 464 -41 97 -102 301 -102 343 0 17 -7 60 -15 95 -59 251 8
652 163 967 41 84 55 106 127 214 108 162 268 328 417 432 77 54 332 189 358
189 6 0 25 7 42 16 43 22 281 84 373 97 60 8 305 7 352 -2z M4379 6775 c-61
-45 -59 -32 -59 -372 0 -299 -1 -313 -19 -323 -12 -6 -128 -10 -306 -10 -308
0 -315 -1 -365 -55 -20 -22 -25 -37 -25 -81 0 -49 3 -57 38 -91 l37 -38 318
-5 317 -5 5 -325 c5 -298 7 -327 24 -353 38 -57 100 -71 164 -38 69 35 72 50
72 401 0 201 4 311 10 315 6 4 151 6 322 5 l311 -1 43 46 c39 40 44 51 44 90
0 41 -5 51 -45 90 l-44 45 -310 0 c-285 0 -311 1 -320 18 -5 9 -9 150 -10 312
-1 326 -3 336 -65 378 -43 30 -94 28 -137 -3z"/>
</g>
</svg>
